<svg width="25" height="25" viewBox="0 0 25 25" fill="none" xmlns="http://www.w3.org/2000/svg">
<path d="M24.1445 6.76548L17.7754 0.147363C17.6848 0.0532227 17.5597 0 17.429 0H7.93633C6.87397 0 6.00967 0.863965 6.00967 1.92588V8.65386H2.16265C1.36782 8.65386 0.721191 9.30029 0.721191 10.0949V17.309C0.721191 18.1036 1.36782 18.75 2.16265 18.75H6.00967V23.0775C6.00967 24.1376 6.87397 25 7.93633 25H22.3522C23.4146 25 24.2789 24.138 24.2789 23.0786V7.09888C24.2789 6.97456 24.2307 6.85508 24.1445 6.76548ZM17.5481 1.2979L22.7766 6.73076H17.5481V1.2979ZM2.16265 17.7885C1.898 17.7885 1.68276 17.5734 1.68276 17.309V10.0949C1.68276 9.83052 1.89805 9.61538 2.16265 9.61538H15.1452C15.4098 9.61538 15.625 9.83052 15.625 10.0949V17.309C15.625 17.5734 15.4098 17.7885 15.1452 17.7885H2.16265ZM23.3173 23.0786C23.3173 23.6079 22.8844 24.0385 22.3522 24.0385H7.93633C7.40415 24.0385 6.97119 23.6074 6.97119 23.0775V18.75H15.1452C15.94 18.75 16.5866 18.1036 16.5866 17.309V10.0949C16.5866 9.30029 15.94 8.65386 15.1452 8.65386H6.97119V1.92588C6.97119 1.39409 7.40415 0.961523 7.93633 0.961523H16.5866V7.21152C16.5866 7.47705 16.8019 7.69229 17.0673 7.69229H23.3173V23.0786Z" fill="white"/>
</svg>
