<svg width="20" height="16" viewBox="0 0 20 16" fill="none" xmlns="http://www.w3.org/2000/svg">
<path d="M9.5 8C8.67088 8 8 8.672 8 9.5C8 10.328 8.67088 11 9.5 11C10.3291 11 11 10.328 11 9.5C11 8.67162 10.3291 8 9.5 8Z" fill="#009EFF" stroke="#009EFF" stroke-miterlimit="10" stroke-linecap="round" stroke-linejoin="round"/>
<path d="M17.4846 15C17.9933 14.2396 18.3894 13.3976 18.6489 12.4976C18.8775 11.7044 19 10.8662 19 9.99888C19 9.78882 18.9928 9.58046 18.9787 9.37401C18.9345 8.72789 18.8221 8.1006 18.6489 7.49925C18.5566 7.17907 18.4471 6.86626 18.3213 6.56187C18.2558 6.4033 18.1859 6.24702 18.1117 6.09317C17.9878 5.83616 17.8521 5.58596 17.7052 5.34327C16.129 2.73905 13.2693 1 10 1C5.026 1 1 5.0255 1 9.99888C1 11.8496 1.558 13.5688 2.51388 14.9978" stroke="#009EFF" stroke-miterlimit="10" stroke-linecap="round" stroke-linejoin="round"/>
<path d="M14.3123 6.39043C14.528 6.21793 14.5629 5.90328 14.3904 5.68765C14.2179 5.47202 13.9033 5.43706 13.6877 5.60957L14.3123 6.39043ZM9.31235 10.3904L14.3123 6.39043L13.6877 5.60957L8.68765 9.60957L9.31235 10.3904Z" fill="#009EFF"/>
</svg>
