<svg width="174" height="51" viewBox="0 0 174 51" fill="none" xmlns="http://www.w3.org/2000/svg">
<path d="M33.2136 0C29.8488 0 27.0923 2.74135 27.0923 6.08777C27.0923 9.4342 29.8488 12.1138 33.2136 12.1138C36.5784 12.1138 39.2727 9.4342 39.2727 6.08777C39.2727 2.74135 36.5784 0 33.2136 0ZM8.16992 13.4968C7.15178 13.4968 6.33231 14.3118 6.33231 15.3244C6.33231 16.337 7.15178 17.152 8.16992 17.152H28.1353C28.8182 17.1149 30.8048 17.2754 31.6988 18.4238C32.6424 19.6463 32.2079 21.7826 31.6988 23.3509C31.6988 23.3509 25.9004 41.8365 25.4658 43.2195C24.547 46.1708 21.6664 48.023 18.8976 46.8129C16.613 45.8127 16.464 43.6517 17.2338 41.5524C17.3331 41.2931 17.4573 41.1079 17.5691 40.8856C17.5691 40.8856 22.5356 31.5873 23.6282 28.9941C24.4353 27.0924 23.3923 25.7835 20.8966 25.7835H9.54813C8.52999 25.7835 7.71052 26.5985 7.71052 27.6111C7.71052 28.6236 8.52999 29.4386 9.54813 29.4386H12.7764C13.4593 29.4016 15.4955 29.488 16.2778 30.7105C17.7429 32.9826 16.7372 33.7235 14.5519 41.2808C14.4153 41.6759 14.2912 42.0834 14.2167 42.5033C14.2167 42.5033 12.7143 47.7884 17.4946 49.9741C21.9148 51.9869 27.0427 49.8382 28.5699 45.047C29.6377 41.6759 35.1878 24.4622 35.1878 24.4622C36.3177 20.9553 36.1314 18.1522 34.5794 16.1641C32.4314 13.4227 28.5947 13.4845 28.0112 13.5092H8.16992V13.4968ZM1.83761 19.5352C0.819474 19.5352 0 20.3502 0 21.3628C0 22.3753 0.819474 23.2397 1.83761 23.2397H25.3168C26.335 23.2397 27.1544 22.3753 27.1544 21.3628C27.1544 20.3502 26.335 19.5352 25.3168 19.5352H1.83761Z" fill="white"/>
<path d="M60.4835 12.012C57.6305 12.012 52.5517 12.3602 52.5517 15.0733C52.5517 19.0231 61.0983 19.0591 61.0983 21.3161C61.0983 22.0004 60.3851 22.6126 58.7864 22.6126C56.5483 22.6126 55.2817 22.4806 53.2158 22.1324C52.3427 21.9883 52.0475 23.6691 52.7731 23.8492C54.1258 24.1973 56.2409 24.4974 60.0531 24.4974C62.906 24.4974 67.8742 23.9932 67.8742 21.268C67.8742 17.3183 59.389 17.2943 59.389 15.1934C59.389 14.5091 60.1023 13.8968 61.7009 13.8968H67.0994C68.1939 13.8968 68.1939 12.012 67.0994 12.012H60.4835ZM80.7126 12.012C77.6136 12.012 72.3873 12.1921 72.3873 16.3699V20.1876C72.3873 24.3774 77.6136 24.5455 80.7126 24.5455C83.9959 24.5455 85.7545 24.2453 87.1072 23.8972C87.845 23.7171 87.5376 22.0244 86.6645 22.1804C84.5985 22.5286 83.3442 22.6606 81.0938 22.6606C79.0032 22.6606 78.4499 22.1924 78.4499 20.9439V19.4913C78.4499 18.999 78.5728 18.903 79.1139 18.903H83.3565C84.1804 18.903 84.1804 17.2943 83.3565 17.2943H79.1139C78.5728 17.2943 78.4499 17.1983 78.4499 16.706V15.6256C78.4499 14.365 79.0032 13.9088 81.0938 13.9088H86.4431C87.5376 13.9088 87.5376 12.024 86.4431 12.024H80.7126V12.012ZM99.8349 12.012C96.736 12.012 91.5096 12.1921 91.5096 16.3699V20.3556C91.5096 24.2453 96.5146 24.4494 99.6135 24.4494C102.245 24.4494 107.988 24.3174 107.988 20.6798V19.4913C107.988 18.0026 106.992 17.6064 105.012 17.6064H100.659C100.069 17.6064 100.069 19.2151 100.659 19.2151H101.987C102.528 19.2151 102.589 19.3232 102.589 19.8034V20.8238C102.589 22.0844 101.397 22.7567 99.6135 22.7567C97.8304 22.7567 97.191 22.0724 97.191 20.8238V15.6016C97.191 14.341 98.1256 13.8848 100.216 13.8848H105.565C106.66 13.8848 106.66 12 105.565 12H99.8349V12.012ZM111.345 12.012C110.595 12.012 110.607 12.3121 110.792 12.9244L113.989 22.3965C114.42 23.561 115.354 24.3294 117.186 24.3294C119.019 24.3294 119.892 23.549 120.322 22.5046C120.322 22.5046 121.589 18.807 121.81 18.1467C121.958 17.6905 122.327 17.6905 122.474 18.1467C122.659 18.7109 123.913 22.3965 123.913 22.3965C124.528 23.6211 125.18 24.3294 127.049 24.3294C129.25 24.3294 130.209 23.453 130.578 22.3965C130.812 21.7362 132.509 16.0818 133.554 12.8164C133.763 12.1801 133.702 12.012 133.111 12.012H131.181C130.578 14.0049 128.721 19.9955 128.648 20.2476C128.512 20.7038 128.168 20.6918 127.983 20.2476C127.86 19.9354 125.782 14.389 125.45 13.5247C125.106 12.6603 124.159 12.024 123.077 12.024C122.105 12.024 121.195 12.5402 120.876 13.5247C120.556 14.5091 118.81 19.9835 118.724 20.2476C118.588 20.7038 118.207 20.7038 118.06 20.2476C117.961 19.9715 116.067 13.9208 115.465 12.012H111.345ZM145.237 12.012C142.236 12.012 137.465 11.988 137.465 15.6136V23.1409C137.465 23.8972 138.043 24.3294 139.998 24.3294C141.953 24.3294 142.531 23.8011 142.531 23.1409V19.6953C142.531 19.2031 142.654 19.1071 143.195 19.1071H147.167C147.708 19.1071 147.831 19.2151 147.831 19.6953V23.1409C147.831 23.8011 148.409 24.3294 150.365 24.3294C152.32 24.3294 152.898 23.9092 152.898 23.1409V15.6136C152.898 11.988 148.237 12.012 145.237 12.012ZM156.206 12.012C155.714 12.012 155.505 12.3722 155.874 12.8164C157.116 14.329 160.03 17.8946 160.227 18.1467C160.473 18.4468 160.83 18.867 160.83 19.3352V23.1529C160.83 23.8131 161.469 24.3414 163.424 24.3414C165.38 24.3414 166.068 23.9212 166.068 23.1529V19.011C166.068 18.5188 166.4 18.2547 166.671 17.9306C166.868 17.6785 169.622 14.377 170.913 12.8164C171.282 12.3602 171.086 12.012 170.581 12.012H168.269C168.269 12.012 165.306 15.8057 165.072 16.1058C164.838 16.4059 164.371 16.3939 164.138 16.1058C163.904 15.8177 161.051 12.012 161.051 12.012H156.206ZM172.844 12.012C172.205 12.012 171.688 12.5282 171.688 13.1405C171.688 13.7528 172.205 14.269 172.844 14.269C173.471 14.269 174 13.7528 174 13.1405C174 12.5162 173.484 12.012 172.844 12.012ZM172.844 12.2761C173.311 12.2761 173.729 12.6843 173.729 13.1405C173.729 13.5967 173.311 13.9448 172.844 13.9448C172.377 13.9448 172.02 13.5967 172.02 13.1405C172.02 12.6843 172.377 12.2761 172.844 12.2761ZM172.352 12.7083C172.315 12.7083 172.303 12.7203 172.303 12.7563V13.4526C172.303 13.5007 172.34 13.5007 172.463 13.5007C172.598 13.5007 172.623 13.4886 172.623 13.4526V12.8644C172.623 12.8284 172.635 12.8164 172.672 12.8164H172.832C172.942 12.8164 172.992 12.8764 172.992 12.9244C172.992 13.0084 172.856 13.0324 172.721 13.0324H172.672C172.61 13.0324 172.623 13.2125 172.672 13.2485C172.807 13.3566 172.93 13.4646 173.004 13.5127C173.029 13.5367 173.078 13.5127 173.115 13.5127H173.447C173.484 13.5127 173.484 13.4886 173.447 13.4646L173.004 13.1405C173.115 13.1405 173.447 13.1525 173.447 12.9244C173.447 12.7683 173.238 12.7083 172.955 12.7083H172.352ZM145.237 13.6207C147.266 13.6207 147.831 14.1489 147.831 15.3975V16.8981C147.831 17.4264 147.721 17.4864 147.229 17.4864H143.208C142.666 17.4864 142.543 17.3783 142.543 16.8981V15.3975C142.543 14.1489 143.208 13.6207 145.237 13.6207Z" fill="white"/>
<path d="M58.4835 30.2618C57.6435 30.2618 56.9999 30.5182 56.5526 31.0309C56.1054 31.5436 55.8817 32.2691 55.8817 33.2073C55.8817 34.1564 56.1272 34.8873 56.6181 35.4C57.1199 35.9127 57.7908 36.1691 58.6308 36.1691C59.0781 36.1691 59.4544 36.1091 59.7599 35.9891C60.0763 35.8691 60.3763 35.7327 60.6599 35.58C60.8454 35.7327 60.9872 35.9182 61.0854 36.1364C61.1944 36.3436 61.249 36.5891 61.249 36.8727C61.249 37.32 60.9981 37.7018 60.4963 38.0182C60.0054 38.3236 59.2526 38.4764 58.2381 38.4764C57.5072 38.4764 56.8199 38.3727 56.1763 38.1655C55.5326 37.9582 54.9708 37.6418 54.4908 37.2164C54.0108 36.78 53.629 36.2345 53.3454 35.58C53.0726 34.9145 52.9363 34.1236 52.9363 33.2073C52.9363 32.3564 53.0672 31.6091 53.329 30.9655C53.6017 30.3109 53.9672 29.76 54.4254 29.3127C54.8944 28.8655 55.4399 28.5273 56.0617 28.2982C56.6835 28.0691 57.349 27.9545 58.0581 27.9545C59.0617 27.9545 59.8363 28.1182 60.3817 28.4455C60.9381 28.7727 61.2163 29.1927 61.2163 29.7055C61.2163 29.9891 61.1454 30.2345 61.0035 30.4418C60.8617 30.6491 60.6981 30.8127 60.5126 30.9327C60.229 30.7473 59.9235 30.5891 59.5963 30.4582C59.2799 30.3273 58.909 30.2618 58.4835 30.2618Z" fill="white"/>
<path d="M65.1261 28.56C65.3116 28.4509 65.5898 28.3473 65.9607 28.2491C66.3425 28.1509 66.7243 28.1018 67.1061 28.1018C67.6516 28.1018 68.1316 28.1836 68.5462 28.3473C68.9716 28.5 69.2443 28.7455 69.3643 29.0836C69.5607 29.6509 69.7734 30.3109 70.0025 31.0636C70.2316 31.8164 70.4607 32.5964 70.6898 33.4036C70.9189 34.2 71.1425 34.9909 71.3607 35.7764C71.5789 36.5509 71.7698 37.2382 71.9334 37.8382C71.8025 37.9909 71.6061 38.1109 71.3443 38.1982C71.0825 38.2964 70.7716 38.3455 70.4116 38.3455C70.1498 38.3455 69.9261 38.3236 69.7407 38.28C69.5661 38.2364 69.4189 38.1709 69.2989 38.0836C69.1898 37.9964 69.0971 37.8818 69.0207 37.74C68.9552 37.5982 68.8952 37.4345 68.8407 37.2491L68.5462 36.12H65.5843C65.4971 36.4473 65.4098 36.7855 65.3225 37.1345C65.2352 37.4836 65.148 37.8218 65.0607 38.1491C64.908 38.2036 64.7443 38.2473 64.5698 38.28C64.4061 38.3236 64.2043 38.3455 63.9643 38.3455C63.408 38.3455 62.9934 38.2527 62.7207 38.0673C62.4589 37.8709 62.328 37.6036 62.328 37.2655C62.328 37.1127 62.3498 36.96 62.3934 36.8073C62.4371 36.6545 62.4861 36.4745 62.5407 36.2673C62.6171 35.9727 62.7207 35.6073 62.8516 35.1709C62.9934 34.7345 63.1461 34.2655 63.3098 33.7636C63.4734 33.2509 63.648 32.7273 63.8334 32.1927C64.0189 31.6582 64.1934 31.1564 64.3571 30.6873C64.5207 30.2073 64.668 29.7818 64.7989 29.4109C64.9407 29.04 65.0498 28.7564 65.1261 28.56ZM67.0898 30.6709C66.9371 31.1291 66.7625 31.6418 66.5661 32.2091C66.3807 32.7655 66.2116 33.3327 66.0589 33.9109H68.088C67.9352 33.3218 67.7771 32.7491 67.6134 32.1927C67.4607 31.6255 67.3189 31.1182 67.188 30.6709H67.0898Z" fill="white"/>
<path d="M74.7963 38.2309C74.3272 38.2309 73.9563 38.0945 73.6836 37.8218C73.4108 37.5491 73.2745 37.1782 73.2745 36.7091V28.2491C73.3945 28.2273 73.5854 28.2 73.8472 28.1673C74.109 28.1236 74.3599 28.1018 74.5999 28.1018C74.8508 28.1018 75.069 28.1236 75.2545 28.1673C75.4508 28.2 75.6145 28.2655 75.7454 28.3636C75.8763 28.4618 75.9745 28.5982 76.0399 28.7727C76.1054 28.9473 76.1381 29.1764 76.1381 29.46V35.9236H79.8854C79.9617 36.0436 80.0327 36.2073 80.0981 36.4145C80.1636 36.6109 80.1963 36.8182 80.1963 37.0364C80.1963 37.4727 80.1036 37.7836 79.9181 37.9691C79.7327 38.1436 79.4872 38.2309 79.1817 38.2309H74.7963Z" fill="white"/>
<path d="M84.5277 38.1164C84.4077 38.1491 84.2168 38.1818 83.9549 38.2145C83.704 38.2473 83.4531 38.2636 83.2022 38.2636C82.9513 38.2636 82.7277 38.2418 82.5313 38.1982C82.3458 38.1655 82.1877 38.1 82.0568 38.0018C81.9258 37.9036 81.8277 37.7673 81.7622 37.5927C81.6968 37.4182 81.664 37.1891 81.664 36.9055V28.2655C81.784 28.2436 81.9749 28.2164 82.2368 28.1836C82.4986 28.14 82.7495 28.1182 82.9895 28.1182C83.2404 28.1182 83.4586 28.14 83.644 28.1836C83.8404 28.2164 84.004 28.2818 84.1349 28.38C84.2659 28.4782 84.364 28.6145 84.4295 28.7891C84.4949 28.9636 84.5277 29.1927 84.5277 29.4764V38.1164Z" fill="white"/>
<path d="M93.6207 28.2655C93.6971 28.3855 93.7626 28.5491 93.8171 28.7564C93.8826 28.9527 93.9153 29.16 93.9153 29.3782C93.9153 29.8036 93.8226 30.1091 93.6371 30.2945C93.4626 30.4691 93.2226 30.5564 92.9171 30.5564H89.4807V32.4055H93.0644C93.1516 32.5255 93.2226 32.6836 93.2771 32.88C93.3426 33.0764 93.3753 33.2836 93.3753 33.5018C93.3753 33.9164 93.2826 34.2164 93.0971 34.4018C92.9226 34.5764 92.6826 34.6636 92.3771 34.6636H89.5135V38.1164C89.3935 38.1491 89.2026 38.1818 88.9407 38.2145C88.6898 38.2473 88.4389 38.2636 88.188 38.2636C87.9371 38.2636 87.7135 38.2418 87.5171 38.1982C87.3316 38.1655 87.1735 38.1 87.0426 38.0018C86.9116 37.9036 86.8135 37.7673 86.748 37.5927C86.6826 37.4182 86.6498 37.1891 86.6498 36.9055V29.7873C86.6498 29.3182 86.7862 28.9473 87.0589 28.6745C87.3316 28.4018 87.7026 28.2655 88.1716 28.2655H93.6207Z" fill="white"/>
<path d="M94.7722 33.2073C94.7722 32.3564 94.9031 31.6036 95.1649 30.9491C95.4377 30.2945 95.8031 29.7491 96.2613 29.3127C96.7304 28.8655 97.2758 28.5273 97.8977 28.2982C98.5304 28.0691 99.2122 27.9545 99.9431 27.9545C100.674 27.9545 101.35 28.0691 101.972 28.2982C102.605 28.5273 103.156 28.8655 103.625 29.3127C104.094 29.7491 104.459 30.2945 104.721 30.9491C104.994 31.6036 105.13 32.3564 105.13 33.2073C105.13 34.0582 104.999 34.8164 104.738 35.4818C104.476 36.1364 104.11 36.6873 103.641 37.1345C103.183 37.5709 102.638 37.9036 102.005 38.1327C101.372 38.3618 100.685 38.4764 99.9431 38.4764C99.2013 38.4764 98.514 38.3618 97.8813 38.1327C97.2486 37.8927 96.7031 37.5491 96.2449 37.1018C95.7867 36.6545 95.4267 36.1036 95.1649 35.4491C94.9031 34.7945 94.7722 34.0473 94.7722 33.2073ZM97.7177 33.2073C97.7177 34.2 97.9195 34.9418 98.3231 35.4327C98.7267 35.9236 99.2667 36.1691 99.9431 36.1691C100.63 36.1691 101.176 35.9236 101.579 35.4327C101.983 34.9418 102.185 34.2 102.185 33.2073C102.185 32.2255 101.983 31.4891 101.579 30.9982C101.187 30.5073 100.647 30.2618 99.9595 30.2618C99.2831 30.2618 98.7377 30.5073 98.3231 30.9982C97.9195 31.4782 97.7177 32.2145 97.7177 33.2073Z" fill="white"/>
<path d="M109.616 34.9745V38.1164C109.496 38.1491 109.305 38.1818 109.043 38.2145C108.792 38.2473 108.542 38.2636 108.291 38.2636C108.04 38.2636 107.816 38.2418 107.62 38.1982C107.434 38.1655 107.276 38.1 107.145 38.0018C107.025 37.9036 106.932 37.7673 106.867 37.5927C106.802 37.4182 106.769 37.1891 106.769 36.9055V29.1982C106.769 28.9691 106.829 28.7945 106.949 28.6745C107.08 28.5436 107.254 28.44 107.472 28.3636C107.843 28.2327 108.274 28.14 108.765 28.0855C109.256 28.02 109.78 27.9873 110.336 27.9873C111.842 27.9873 112.976 28.3036 113.74 28.9364C114.503 29.5691 114.885 30.4255 114.885 31.5055C114.885 32.1818 114.711 32.76 114.362 33.24C114.012 33.72 113.598 34.0909 113.118 34.3527C113.511 34.8873 113.898 35.3891 114.28 35.8582C114.662 36.3273 114.962 36.7527 115.18 37.1345C115.071 37.5164 114.869 37.8109 114.574 38.0182C114.291 38.2145 113.969 38.3127 113.609 38.3127C113.369 38.3127 113.162 38.2855 112.987 38.2309C112.812 38.1764 112.66 38.1 112.529 38.0018C112.398 37.9036 112.278 37.7836 112.169 37.6418C112.06 37.5 111.956 37.3473 111.858 37.1836L110.483 34.9745H109.616ZM110.647 32.7982C111.062 32.7982 111.389 32.6945 111.629 32.4873C111.869 32.2691 111.989 31.9527 111.989 31.5382C111.989 31.1236 111.852 30.8127 111.58 30.6055C111.318 30.3873 110.898 30.2782 110.32 30.2782C110.156 30.2782 110.025 30.2836 109.927 30.2945C109.829 30.3055 109.72 30.3218 109.6 30.3436V32.7982H110.647Z" fill="white"/>
<path d="M125.724 37.8382C125.571 37.9909 125.348 38.1055 125.053 38.1818C124.769 38.2691 124.426 38.3127 124.022 38.3127C123.619 38.3127 123.237 38.2527 122.877 38.1327C122.517 38.0127 122.222 37.7236 121.993 37.2655L120.373 33.96C120.209 33.6218 120.062 33.3055 119.931 33.0109C119.8 32.7055 119.659 32.3564 119.506 31.9636L119.408 31.98C119.451 32.5691 119.473 33.1691 119.473 33.78C119.484 34.3909 119.489 34.9909 119.489 35.58V38.1164C119.369 38.1491 119.184 38.1818 118.933 38.2145C118.693 38.2473 118.453 38.2636 118.213 38.2636C117.973 38.2636 117.76 38.2473 117.575 38.2145C117.389 38.1818 117.237 38.1164 117.117 38.0182C116.997 37.92 116.904 37.7891 116.839 37.6255C116.773 37.4509 116.74 37.2273 116.74 36.9545V28.7727C116.893 28.5545 117.128 28.3909 117.444 28.2818C117.76 28.1727 118.099 28.1182 118.459 28.1182C118.862 28.1182 119.244 28.1836 119.604 28.3145C119.975 28.4345 120.269 28.7182 120.488 29.1655L122.124 32.4709C122.288 32.8091 122.435 33.1309 122.566 33.4364C122.697 33.7309 122.839 34.0745 122.991 34.4673L123.073 34.4509C123.029 33.8618 123.002 33.2727 122.991 32.6836C122.98 32.0945 122.975 31.5055 122.975 30.9164V28.2655C123.095 28.2327 123.275 28.2 123.515 28.1673C123.766 28.1345 124.011 28.1182 124.251 28.1182C124.731 28.1182 125.097 28.2055 125.348 28.38C125.599 28.5436 125.724 28.8927 125.724 29.4273V37.8382Z" fill="white"/>
<path d="M130.71 38.1164C130.59 38.1491 130.399 38.1818 130.137 38.2145C129.887 38.2473 129.636 38.2636 129.385 38.2636C129.134 38.2636 128.91 38.2418 128.714 38.1982C128.528 38.1655 128.37 38.1 128.239 38.0018C128.108 37.9036 128.01 37.7673 127.945 37.5927C127.879 37.4182 127.847 37.1891 127.847 36.9055V28.2655C127.967 28.2436 128.157 28.2164 128.419 28.1836C128.681 28.14 128.932 28.1182 129.172 28.1182C129.423 28.1182 129.641 28.14 129.827 28.1836C130.023 28.2164 130.187 28.2818 130.317 28.38C130.448 28.4782 130.547 28.6145 130.612 28.7891C130.677 28.9636 130.71 29.1927 130.71 29.4764V38.1164Z" fill="white"/>
<path d="M134.943 28.56C135.129 28.4509 135.407 28.3473 135.778 28.2491C136.16 28.1509 136.541 28.1018 136.923 28.1018C137.469 28.1018 137.949 28.1836 138.363 28.3473C138.789 28.5 139.061 28.7455 139.181 29.0836C139.378 29.6509 139.591 30.3109 139.82 31.0636C140.049 31.8164 140.278 32.5964 140.507 33.4036C140.736 34.2 140.96 34.9909 141.178 35.7764C141.396 36.5509 141.587 37.2382 141.751 37.8382C141.62 37.9909 141.423 38.1109 141.161 38.1982C140.9 38.2964 140.589 38.3455 140.229 38.3455C139.967 38.3455 139.743 38.3236 139.558 38.28C139.383 38.2364 139.236 38.1709 139.116 38.0836C139.007 37.9964 138.914 37.8818 138.838 37.74C138.772 37.5982 138.712 37.4345 138.658 37.2491L138.363 36.12H135.401C135.314 36.4473 135.227 36.7855 135.14 37.1345C135.052 37.4836 134.965 37.8218 134.878 38.1491C134.725 38.2036 134.561 38.2473 134.387 38.28C134.223 38.3236 134.021 38.3455 133.781 38.3455C133.225 38.3455 132.811 38.2527 132.538 38.0673C132.276 37.8709 132.145 37.6036 132.145 37.2655C132.145 37.1127 132.167 36.96 132.211 36.8073C132.254 36.6545 132.303 36.4745 132.358 36.2673C132.434 35.9727 132.538 35.6073 132.669 35.1709C132.811 34.7345 132.963 34.2655 133.127 33.7636C133.291 33.2509 133.465 32.7273 133.651 32.1927C133.836 31.6582 134.011 31.1564 134.174 30.6873C134.338 30.2073 134.485 29.7818 134.616 29.4109C134.758 29.04 134.867 28.7564 134.943 28.56ZM136.907 30.6709C136.754 31.1291 136.58 31.6418 136.383 32.2091C136.198 32.7655 136.029 33.3327 135.876 33.9109H137.905C137.752 33.3218 137.594 32.7491 137.431 32.1927C137.278 31.6255 137.136 31.1182 137.005 30.6709H136.907Z" fill="white"/>
</svg>
