<svg width="17" height="13" viewBox="0 0 17 13" fill="none" xmlns="http://www.w3.org/2000/svg">
<g clip-path="url(#clip0_142_2748)">
<path d="M2.78017 12.7687C2.10468 11.693 1.72057 10.4467 1.6685 9.16192C1.61642 7.8771 1.89832 6.6015 2.48435 5.47016C3.07039 4.33881 3.93874 3.39382 4.9975 2.73522C6.05625 2.07661 7.26601 1.7289 8.4987 1.7289C9.7314 1.7289 10.9412 2.07661 11.9999 2.73522C13.0587 3.39382 13.927 4.33881 14.5131 5.47016C15.0991 6.6015 15.381 7.8771 15.3289 9.16192C15.2768 10.4467 14.8927 11.693 14.2172 12.7687H16.1312C16.7669 11.4168 17.0622 9.91824 16.9891 8.41437C16.916 6.91049 16.4771 5.45079 15.7136 4.17288C14.9501 2.89497 13.8872 1.84094 12.6251 1.11016C11.3631 0.379377 9.94343 -0.00408936 8.5 -0.00408936C7.05657 -0.00408936 5.63692 0.379377 4.37486 1.11016C3.11281 1.84094 2.04994 2.89497 1.28644 4.17288C0.52294 5.45079 0.0839668 6.91049 0.010899 8.41437C-0.0621688 9.91824 0.233076 11.4168 0.868803 12.7687H2.78017Z" fill="#4A4AF4"/>
<path d="M8.61415 4.65344C7.3693 4.65344 5.93643 5.26624 5.1584 5.91286L5.8677 7.47259C6.49142 6.87737 7.50027 6.36874 8.40927 6.36874C9.27419 6.36874 9.75008 6.66905 9.75008 7.27779C9.75008 7.68362 9.43368 7.91629 8.8359 7.97311C6.59387 8.1882 4.85107 8.92004 4.85107 10.7151C4.85107 12.1396 5.83528 13 7.45489 13C7.94176 13.0006 8.42003 12.866 8.84051 12.61C9.26098 12.3539 9.6085 11.9856 9.84734 11.543V12.7673H11.8676V7.63492C11.8676 5.51515 10.4542 4.65885 8.61415 4.65885V4.65344ZM8.02415 11.3536C7.37579 11.3536 7.01141 11.0615 7.01141 10.5826C7.01141 9.58154 8.17846 9.34074 9.70859 9.34074C9.70859 10.3878 9.03688 11.3536 8.02285 11.3536H8.02415Z" fill="#060809"/>
</g>
<defs>
<clipPath id="clip0_142_2748">
<rect width="17" height="13" fill="white"/>
</clipPath>
</defs>
</svg>
