<svg width="26" height="17" viewBox="0 0 26 17" fill="none" xmlns="http://www.w3.org/2000/svg">
<g clip-path="url(#clip0_125_674)">
<path opacity="0.07" d="M23.5096 0H2.01511C0.873214 0 0 0.873214 0 2.01511V14.1058C0 15.2477 0.940385 16.1209 2.01511 16.1209H23.5096C24.6515 16.1209 25.5247 15.2477 25.5247 14.1058V2.01511C25.5247 0.873214 24.5843 0 23.5096 0Z" fill="black"/>
<path d="M23.5098 0.671692C24.2487 0.671692 24.8532 1.27622 24.8532 2.0151V14.1058C24.8532 14.8446 24.2487 15.4492 23.5098 15.4492H2.01528C1.27641 15.4492 0.671875 14.8446 0.671875 14.1058V2.0151C0.671875 1.27622 1.27641 0.671692 2.01528 0.671692H23.5098Z" fill="#006FCF"/>
<path d="M6.02605 6.89702L6.54595 8.15713H5.51018L6.02605 6.89702ZM16.8237 6.94941H14.824V7.50491H16.7914V8.33715H14.828V8.95646H16.8277V9.45285L18.2228 7.94488L16.8277 6.37309L16.8237 6.94941ZM7.37752 5.37763H10.061L10.6568 6.67737L11.2089 5.3736H18.1745L18.8986 6.17292L19.6475 5.3736H22.8468L20.4831 7.961L22.8227 10.5323H19.5756L18.8516 9.73295L18.0959 10.5323H6.73738L6.40556 9.73295H5.64654L5.31404 10.5323H2.68701L4.89423 5.3736H7.19817L7.37752 5.37763ZM13.1965 6.10172H11.6925L10.685 8.47687L9.59346 6.10172H8.10094V9.33262L6.71723 6.10172H5.37853L3.77853 9.80415H4.82303L5.15485 9.00482H6.89859L7.23041 9.80415H9.05745V7.161L10.2336 9.80818H11.0329L12.2017 7.16906V9.80885H13.181L13.1972 6.10105L13.1965 6.10172ZM19.4702 7.961L21.1703 6.10172H19.9464L18.871 7.26108L17.8312 6.10172H13.8722V9.80818H17.7748L18.8589 8.64076L19.8987 9.80818H21.1582L19.4709 7.961H19.4702Z" fill="white"/>
</g>
<defs>
<clipPath id="clip0_125_674">
<rect width="25.5247" height="16.1209" fill="white"/>
</clipPath>
</defs>
</svg>
