<svg width="27" height="17" viewBox="0 0 27 17" fill="none" xmlns="http://www.w3.org/2000/svg">
<g clip-path="url(#clip0_125_679)">
<path d="M23.9961 0H3.32491C3.2388 0 3.15254 0 3.06658 0.000456402C2.99401 0.00106494 2.9216 0.00182561 2.84903 0.00380335C2.69096 0.0080631 2.53153 0.0174954 2.37544 0.0454881C2.2189 0.0723077 2.06723 0.1223 1.92543 0.193819C1.64035 0.338814 1.40864 0.570527 1.26364 0.855601C1.192 0.997461 1.142 1.14925 1.11531 1.30592C1.08702 1.46216 1.07774 1.62144 1.07348 1.77936C1.07162 1.85186 1.07051 1.92438 1.07013 1.99691C1.06982 2.08271 1.06982 2.16882 1.06982 2.25508V13.8656C1.06982 13.9519 1.06982 14.0379 1.07013 14.1241C1.07058 14.1965 1.0715 14.2691 1.07348 14.3417C1.07774 14.4993 1.08717 14.6587 1.11531 14.8148C1.14194 14.9715 1.19189 15.1233 1.26349 15.2651C1.33548 15.4068 1.42944 15.5362 1.5419 15.6485C1.65416 15.761 1.78356 15.855 1.92527 15.9269C2.06934 16.0004 2.21691 16.0471 2.37559 16.0755C2.53153 16.1034 2.69096 16.1128 2.84903 16.1171C2.9216 16.1187 2.99401 16.1197 3.06658 16.1201C3.15254 16.1207 3.2388 16.1207 3.32491 16.1207H23.9961C24.0821 16.1207 24.1683 16.1207 24.2543 16.1201C24.3267 16.1198 24.3991 16.1187 24.472 16.1171C24.6298 16.1128 24.7892 16.1034 24.9456 16.0755C25.1022 16.0487 25.2538 15.9986 25.3956 15.9269C25.6805 15.7817 25.9122 15.5501 26.0574 15.2651C26.1309 15.1211 26.1774 14.9735 26.2056 14.8148C26.2338 14.6587 26.243 14.4993 26.2472 14.3417C26.2492 14.2691 26.2503 14.1965 26.2506 14.1241C26.2512 14.0379 26.2512 13.9519 26.2512 13.8656V2.25523C26.2512 2.16897 26.2512 2.08287 26.2506 1.99676C26.2503 1.92428 26.2492 1.85181 26.2472 1.77936C26.243 1.62144 26.2338 1.46216 26.2056 1.30592C26.1791 1.14922 26.1291 0.997413 26.0574 0.855601C25.9123 0.570577 25.6806 0.338883 25.3956 0.193819C25.2538 0.122374 25.1021 0.0724337 24.9456 0.0456402C24.7892 0.0174954 24.6298 0.00821523 24.472 0.00395548C24.3994 0.00211273 24.3269 0.000997022 24.2543 0.000608536C24.1683 0 24.0821 0 23.9961 0Z" fill="black"/>
<path d="M23.9964 0.537354L24.2507 0.53781C24.3195 0.538266 24.3884 0.539027 24.4576 0.540853C24.5783 0.5442 24.7192 0.550741 24.8506 0.574322C24.9647 0.59486 25.0605 0.626048 25.1524 0.672905C25.3363 0.7664 25.4857 0.915954 25.579 1.09995C25.6256 1.19123 25.6566 1.28646 25.6771 1.40163C25.7006 1.53155 25.7071 1.67288 25.7103 1.79413C25.7123 1.86259 25.7132 1.93105 25.7134 2.00103C25.7141 2.08577 25.7141 2.17036 25.7141 2.25525V13.8658C25.7141 13.9507 25.7141 14.0353 25.7135 14.1217C25.7132 14.1902 25.7123 14.2586 25.7105 14.3271C25.7071 14.4482 25.7006 14.5895 25.6768 14.721C25.6596 14.8255 25.6265 14.9268 25.5787 15.0214C25.4852 15.2055 25.3356 15.355 25.1515 15.4485C25.0602 15.495 24.9647 15.5262 24.8517 15.5466C24.7176 15.5705 24.5707 15.577 24.4601 15.5801C24.3906 15.5816 24.3213 15.5826 24.2503 15.5829C24.1658 15.5836 24.081 15.5836 23.9964 15.5836H3.32182C3.23815 15.5836 3.15447 15.5836 3.06928 15.5829C3.00081 15.5827 2.93235 15.5817 2.8639 15.5802C2.75071 15.5772 2.60375 15.5705 2.47078 15.5467C2.36565 15.5292 2.26379 15.4959 2.16864 15.4479C2.07738 15.4015 1.99408 15.3409 1.92188 15.2683C1.84945 15.196 1.78896 15.1127 1.74267 15.0214C1.69486 14.9263 1.66173 14.8245 1.64439 14.7194C1.62066 14.5881 1.61396 14.4474 1.61092 14.3272C1.6092 14.2585 1.60819 14.1898 1.60788 14.1211L1.60742 13.9192V2.202L1.60773 2.00043C1.60804 1.9316 1.60905 1.86278 1.61077 1.79398C1.61412 1.67349 1.62066 1.53277 1.64454 1.40041C1.66191 1.29557 1.69505 1.19396 1.74282 1.09903C1.78907 1.00806 1.84931 0.924991 1.92234 0.852119C1.99472 0.779628 2.0781 0.719041 2.1694 0.672601C2.26432 0.624918 2.36586 0.591788 2.47063 0.574322C2.60223 0.550741 2.74325 0.5442 2.86405 0.540853C2.93281 0.539027 3.00173 0.538266 3.07004 0.53781L3.32517 0.537354H23.9964Z" fill="white"/>
<path d="M7.68897 5.44186C7.90256 5.17487 8.0474 4.81629 8.00921 4.44995C7.69673 4.46547 7.31548 4.65609 7.09458 4.92339C6.89635 5.1522 6.72094 5.52569 6.76658 5.87666C7.1174 5.90709 7.46792 5.70141 7.68897 5.44186Z" fill="black"/>
<path d="M8.00531 5.94528C7.49566 5.91485 7.06268 6.23434 6.81942 6.23434C6.57601 6.23434 6.20343 5.96049 5.80043 5.96795C5.27602 5.97556 4.7895 6.27222 4.52326 6.74383C3.97589 7.68706 4.37874 9.0867 4.91121 9.85497C5.16968 10.2353 5.48125 10.6537 5.89171 10.6386C6.27965 10.6234 6.43163 10.3876 6.90294 10.3876C7.3741 10.3876 7.51102 10.6386 7.92163 10.631C8.3473 10.6234 8.61354 10.2507 8.87201 9.87034C9.16868 9.43676 9.28993 9.01839 9.29753 8.99557C9.28993 8.98796 8.47662 8.67593 8.46901 7.74031C8.4614 6.95682 9.10767 6.58409 9.1381 6.56112C8.77313 6.02135 8.20293 5.96049 8.00515 5.94528" fill="black"/>
<path d="M13.0846 4.88507C14.1919 4.88507 14.963 5.64833 14.963 6.75951C14.963 7.87466 14.176 8.64187 13.0569 8.64187H11.831V10.5916H10.9453V4.88507H13.0846ZM11.831 7.89839H12.8473C13.6186 7.89839 14.0574 7.48322 14.0574 6.76347C14.0574 6.04388 13.6185 5.6325 12.8512 5.6325H11.831V7.89839Z" fill="black"/>
<path d="M15.1826 9.40908C15.1826 8.67747 15.7402 8.25834 16.7683 8.19505L17.8716 8.12781V7.81137C17.8716 7.34888 17.5672 7.09573 17.0254 7.09573C16.5784 7.09573 16.2541 7.325 16.1872 7.67688H15.3881C15.412 6.93751 16.1079 6.39972 17.0491 6.39972C18.0614 6.39972 18.7219 6.9296 18.7219 7.75219V10.5915H17.9034V9.90732H17.8836C17.6502 10.3541 17.136 10.6348 16.5784 10.6348C15.756 10.6348 15.1826 10.1446 15.1826 9.40908ZM17.8716 9.04137V8.72098L16.887 8.78427C16.3332 8.81987 16.0448 9.0254 16.0448 9.3852C16.0448 9.73328 16.3452 9.95874 16.8158 9.95874C17.4167 9.95874 17.8716 9.57506 17.8716 9.04137Z" fill="black"/>
<path d="M19.4744 12.1178V11.4338C19.5297 11.4416 19.6641 11.4495 19.7353 11.4495C20.1267 11.4495 20.3482 11.2836 20.4827 10.8563L20.5618 10.6033L19.063 6.45111H19.9883L21.0324 9.82027H21.0521L22.0961 6.45111H22.9978L21.4436 10.8128C21.0876 11.8134 20.6803 12.1417 19.8183 12.1417C19.7511 12.1417 19.5335 12.1338 19.4744 12.1178Z" fill="black"/>
</g>
<defs>
<clipPath id="clip0_125_679">
<rect width="25.5247" height="16.1209" fill="white" transform="translate(0.898438)"/>
</clipPath>
</defs>
</svg>
