<svg width="27" height="17" viewBox="0 0 27 17" fill="none" xmlns="http://www.w3.org/2000/svg">
<g clip-path="url(#clip0_125_690)">
<path opacity="0.07" d="M24.3065 0H2.81198C1.67009 0 0.796875 0.873214 0.796875 2.01511V14.1058C0.796875 15.2477 1.73726 16.1209 2.81198 16.1209H24.3065C25.4484 16.1209 26.3216 15.2477 26.3216 14.1058V2.01511C26.3216 0.873214 25.3812 0 24.3065 0Z" fill="black"/>
<path d="M24.3067 0.671692C25.0455 0.671692 25.6501 1.27622 25.6501 2.0151V14.1058C25.6501 14.8446 25.0455 15.4492 24.3067 15.4492H2.81216C2.07328 15.4492 1.46875 14.8446 1.46875 14.1058V2.0151C1.46875 1.27622 2.07328 0.671692 2.81216 0.671692H24.3067Z" fill="white"/>
<path d="M15.3058 2.95547C12.4846 2.01509 9.46197 3.49283 8.45442 6.31399C7.44686 9.13514 8.99178 12.1578 11.8129 13.1654C14.6341 14.1729 17.6568 12.628 18.6643 9.80684C19.6047 6.98569 18.1269 3.96303 15.3058 2.95547Z" fill="#EDA024"/>
<path d="M11.6113 5.57513L11.8128 4.90342C12.2159 5.03776 12.686 5.1721 13.0891 5.37361C13.2234 5.03776 13.3578 4.70191 13.4249 4.29889L14.0295 4.5004L13.6936 5.50795L14.231 5.70947L14.5668 4.70191L15.1714 4.90342C15.037 5.23927 14.9027 5.57513 14.8355 5.97815L15.1042 6.11249C15.3057 6.24683 15.5072 6.38117 15.7087 6.58268C15.9102 6.78419 15.9774 6.9857 16.0446 7.25438C16.0446 7.45589 16.0446 7.65741 15.9102 7.85892C15.7759 8.19477 15.5744 8.39628 15.1714 8.46345H15.037C15.1714 8.53062 15.2385 8.59779 15.3057 8.73213C15.5744 9.00081 15.6415 9.26949 15.5744 9.67251C15.5744 9.73969 15.5744 9.80686 15.5072 9.87403C15.5072 9.9412 15.5072 9.9412 15.44 10.0084C15.3729 10.1427 15.3057 10.2099 15.3057 10.3442C15.1042 10.6801 14.7683 10.9488 14.2981 10.9488C13.9623 10.9488 13.6264 10.9488 13.3578 10.8816L13.0891 10.8144C12.9547 11.1503 12.8204 11.4861 12.7532 11.8891L12.1487 11.6876C12.283 11.3518 12.4174 11.0159 12.4845 10.6801L11.9472 10.4786C11.8128 10.8144 11.6785 11.1503 11.6113 11.4861L11.0068 11.2846C11.1411 10.9488 11.2755 10.6129 11.3426 10.2099L10.0664 9.80686L10.4694 9.06798C10.6038 9.13515 10.8053 9.20232 10.9396 9.20232C11.074 9.26949 11.2083 9.20232 11.2755 9.06798L12.2159 6.24683V6.17966C12.2159 5.97815 12.1487 5.84381 11.9472 5.84381C11.9472 5.70947 11.8128 5.6423 11.6113 5.57513ZM12.4174 9.60535C12.7532 9.73969 13.0219 9.80686 13.2906 9.87403C13.4921 9.9412 13.6264 9.9412 13.8279 9.9412C13.9623 9.9412 14.0295 9.9412 14.1638 9.87403C14.4996 9.67251 14.5668 9.20232 14.2981 8.93364L13.8951 8.59779C13.6936 8.46345 13.4249 8.39628 13.1562 8.32911C13.0891 8.32911 12.9547 8.26194 12.8876 8.19477L12.4174 9.60535ZM13.0891 7.52306C13.2906 7.59023 13.4249 7.65741 13.5593 7.65741C13.7608 7.72458 13.9623 7.79175 14.1638 7.72458C14.4325 7.72458 14.634 7.65741 14.7012 7.38872C14.7683 7.18721 14.7683 6.9857 14.7012 6.85136C14.634 6.71702 14.4996 6.64985 14.3653 6.58268C14.1638 6.44834 13.9623 6.38117 13.6936 6.314L13.4921 6.24683C13.4249 6.71702 13.2234 7.12004 13.0891 7.52306Z" fill="white"/>
</g>
<defs>
<clipPath id="clip0_125_690">
<rect width="25.5247" height="16.1209" fill="white" transform="translate(0.796875)"/>
</clipPath>
</defs>
</svg>
