<svg width="26" height="17" viewBox="0 0 26 17" fill="none" xmlns="http://www.w3.org/2000/svg">
<g clip-path="url(#clip0_125_709)">
<path opacity="0.07" d="M23.8998 0H2.40525C1.26335 0 0.390137 0.873214 0.390137 2.01511V14.1058C0.390137 15.2477 1.33052 16.1209 2.40525 16.1209H23.8998C25.0416 16.1209 25.9149 15.2477 25.9149 14.1058V2.01511C25.9149 0.873214 24.9745 0 23.8998 0Z" fill="black"/>
<path d="M23.8999 0.671692C24.6388 0.671692 25.2433 1.27622 25.2433 2.0151V14.1058C25.2433 14.8446 24.6388 15.4492 23.8999 15.4492H2.40542C1.66654 15.4492 1.06201 14.8446 1.06201 14.1058V2.0151C1.06201 1.27622 1.66654 0.671692 2.40542 0.671692H23.8999Z" fill="white"/>
<path d="M2.78797 4.80943H1.7334V8.50379H2.78797C3.34549 8.50379 3.74851 8.36945 4.10451 8.08062C4.52768 7.73133 4.77621 7.20741 4.77621 6.66333C4.7695 5.56845 3.95674 4.80943 2.78797 4.80943ZM3.63432 7.59028C3.40594 7.79179 3.11711 7.88583 2.64691 7.88583H2.45212V5.44083H2.64691C3.11039 5.44083 3.39251 5.52143 3.63432 5.73638C3.88285 5.95804 4.03062 6.30061 4.03062 6.65661C4.03062 7.01261 3.88285 7.36861 3.63432 7.59028ZM5.10535 4.80943H5.82407V8.50379H5.10535V4.80943ZM7.58393 6.22672C7.15404 6.06551 7.02642 5.95804 7.02642 5.76324C7.02642 5.52815 7.2548 5.3535 7.56378 5.3535C7.77873 5.3535 7.96009 5.44083 8.14145 5.65577L8.5176 5.16543C8.20862 4.89675 7.83918 4.75569 7.42944 4.75569C6.77789 4.75569 6.27411 5.21245 6.27411 5.81698C6.27411 6.32747 6.50921 6.58944 7.18091 6.83125C7.46303 6.93201 7.60409 6.99918 7.67797 7.03948C7.81903 7.13352 7.89292 7.26786 7.89292 7.42235C7.89292 7.72462 7.65782 7.94628 7.3354 7.94628C6.99284 7.94628 6.71744 7.77164 6.54951 7.45594L6.08604 7.90598C6.41517 8.39632 6.81819 8.61127 7.36227 8.61127C8.10786 8.61127 8.63851 8.11421 8.63851 7.39548C8.65194 6.79767 8.40341 6.52899 7.58393 6.22672ZM8.8736 6.66333C8.8736 7.75149 9.72667 8.59111 10.8215 8.59111C11.1305 8.59111 11.3992 8.53066 11.7216 8.37617V7.52982C11.4328 7.81866 11.1775 7.93285 10.8551 7.93285C10.1297 7.93285 9.61248 7.40892 9.61248 6.65661C9.61248 5.9446 10.1431 5.38709 10.8215 5.38709C11.1641 5.38709 11.4261 5.508 11.7216 5.80355V4.9572C11.4059 4.79599 11.144 4.72882 10.835 4.72882C9.75354 4.72882 8.8736 5.5886 8.8736 6.66333ZM17.4445 7.29473L16.4571 4.80943H15.6712L17.2363 8.59783H17.6259L19.2178 4.80943H18.4387L17.4445 7.29473ZM19.547 8.50379H21.5889V7.87911H20.2657V6.88499H21.5419V6.2603H20.2657V5.44083H21.5889V4.80943H19.547V8.50379ZM24.4437 5.9043C24.4437 5.21245 23.9668 4.81614 23.1339 4.81614H22.0659V8.51051H22.7846V7.02605H22.8786L23.8727 8.51051H24.7594L23.5973 6.95216C24.1414 6.83797 24.4437 6.46853 24.4437 5.9043ZM22.9928 6.51555H22.7846V5.39381H23.0062C23.4563 5.39381 23.6981 5.58188 23.6981 5.9446C23.6981 6.31404 23.4563 6.51555 22.9928 6.51555Z" fill="#231F20"/>
<path d="M13.9317 8.63809C14.4538 8.63809 14.9546 8.43066 15.3238 8.06145C15.693 7.69223 15.9004 7.19147 15.9004 6.66932C15.9004 6.14718 15.693 5.64641 15.3238 5.2772C14.9546 4.90798 14.4538 4.70056 13.9317 4.70056C13.4095 4.70056 12.9087 4.90798 12.5395 5.2772C12.1703 5.64641 11.9629 6.14718 11.9629 6.66932C11.9629 7.19147 12.1703 7.69223 12.5395 8.06145C12.9087 8.43066 13.4095 8.63809 13.9317 8.63809Z" fill="url(#paint0_linear_125_709)"/>
<path opacity="0.65" d="M13.9317 8.63809C14.4538 8.63809 14.9546 8.43066 15.3238 8.06145C15.693 7.69223 15.9004 7.19147 15.9004 6.66932C15.9004 6.14718 15.693 5.64641 15.3238 5.2772C14.9546 4.90798 14.4538 4.70056 13.9317 4.70056C13.4095 4.70056 12.9087 4.90798 12.5395 5.2772C12.1703 5.64641 11.9629 6.14718 11.9629 6.66932C11.9629 7.19147 12.1703 7.69223 12.5395 8.06145C12.9087 8.43066 13.4095 8.63809 13.9317 8.63809Z" fill="url(#paint1_linear_125_709)"/>
<path d="M24.954 5.04159C24.954 4.97456 24.9071 4.94104 24.8333 4.94104H24.7261V5.2628H24.8065V5.13544L24.9004 5.2628H24.9942L24.887 5.12873C24.9272 5.12203 24.954 5.08851 24.954 5.04159ZM24.8199 5.08851H24.8065V5.00137H24.8199C24.8601 5.00137 24.8802 5.01478 24.8802 5.04159C24.8802 5.07511 24.8601 5.08851 24.8199 5.08851Z" fill="#231F20"/>
<path d="M24.8471 4.82013C24.6926 4.82013 24.5649 4.94775 24.5649 5.10224C24.5649 5.25674 24.6926 5.38436 24.8471 5.38436C25.0015 5.38436 25.1292 5.25674 25.1292 5.10224C25.1292 4.94775 25.0015 4.82013 24.8471 4.82013ZM24.8471 5.33734C24.7261 5.33734 24.6187 5.23659 24.6187 5.10224C24.6187 4.97462 24.7194 4.86715 24.8471 4.86715C24.968 4.86715 25.0687 4.97462 25.0687 5.10224C25.0687 5.22987 24.968 5.33734 24.8471 5.33734Z" fill="#231F20"/>
<path d="M25.2432 8.72137C25.2432 8.72137 18.5867 13.3487 6.41943 15.4492H23.8992C24.2536 15.4492 24.5937 15.3091 24.8453 15.0595C25.097 14.8099 25.2397 14.4709 25.2426 14.1165L25.2587 12.088L25.2432 8.72205V8.72137Z" fill="#F48120"/>
</g>
<defs>
<linearGradient id="paint0_linear_125_709" x1="14.9372" y1="8.24514" x2="13.577" y2="6.11517" gradientUnits="userSpaceOnUse">
<stop stop-color="#F89F20"/>
<stop offset="0.25" stop-color="#F79A20"/>
<stop offset="0.533" stop-color="#F68D20"/>
<stop offset="0.62" stop-color="#F58720"/>
<stop offset="0.723" stop-color="#F48120"/>
<stop offset="1" stop-color="#F37521"/>
</linearGradient>
<linearGradient id="paint1_linear_125_709" x1="14.7229" y1="8.21626" x2="12.7347" y2="4.32978" gradientUnits="userSpaceOnUse">
<stop stop-color="#F58720"/>
<stop offset="0.359" stop-color="#E16F27"/>
<stop offset="0.703" stop-color="#D4602C"/>
<stop offset="0.982" stop-color="#D05B2E"/>
</linearGradient>
<clipPath id="clip0_125_709">
<rect width="25.5247" height="16.1209" fill="white" transform="translate(0.390137)"/>
</clipPath>
</defs>
</svg>
