<svg width="27" height="17" viewBox="0 0 27 17" fill="none" xmlns="http://www.w3.org/2000/svg">
<g clip-path="url(#clip0_125_766)">
<path d="M24.0868 0H2.59226C1.47934 0 0.577148 0.902195 0.577148 2.01511V14.1058C0.577148 15.2187 1.47934 16.1209 2.59226 16.1209H24.0868C25.1997 16.1209 26.1019 15.2187 26.1019 14.1058V2.01511C26.1019 0.902195 25.1997 0 24.0868 0Z" fill="black" fill-opacity="0.07"/>
<path fill-rule="evenodd" clip-rule="evenodd" d="M24.0869 0.671692C24.8258 0.671692 25.4303 1.27622 25.4303 2.0151V14.1058C25.4303 14.8446 24.8258 15.4492 24.0869 15.4492H2.59243C1.85356 15.4492 1.24902 14.8446 1.24902 14.1058V2.0151C1.24902 1.27622 1.85356 0.671692 2.59243 0.671692H24.0869Z" fill="#3D95CE"/>
<path d="M17.1516 5.6154C17.1516 7.6735 15.434 10.3476 14.0396 12.225H10.8557L9.57812 4.41305L12.3664 4.14303L13.0414 9.70137C13.6728 8.64949 14.4513 6.99777 14.4513 5.87132C14.4513 5.2547 14.3479 4.83488 14.1867 4.48896L16.7257 3.96301C17.0193 4.45873 17.1516 4.9699 17.1516 5.6154V5.6154Z" fill="white"/>
</g>
<defs>
<clipPath id="clip0_125_766">
<rect width="25.5247" height="16.1209" fill="white" transform="translate(0.577148)"/>
</clipPath>
</defs>
</svg>
