<svg width="26" height="17" viewBox="0 0 26 17" fill="none" xmlns="http://www.w3.org/2000/svg">
<g clip-path="url(#clip0_125_718)">
<path d="M24.2797 16.0853H2.00806C1.66385 16.0842 1.33404 15.947 1.09065 15.7036C0.847255 15.4602 0.710047 15.1304 0.708984 14.7862V1.909C0.710047 1.56479 0.847255 1.23498 1.09065 0.991588C1.33404 0.748194 1.66385 0.610987 2.00806 0.609924H24.2797C24.6239 0.610987 24.9537 0.748194 25.1971 0.991588C25.4405 1.23498 25.5777 1.56479 25.5788 1.909V14.7862C25.5777 15.1304 25.4405 15.4602 25.1971 15.7036C24.9537 15.947 24.6239 16.0842 24.2797 16.0853Z" fill="white"/>
<path opacity="0.25" d="M24.2693 16.4071H2.01713C1.11436 16.4071 0.380859 15.6837 0.380859 14.795V1.89834C0.380859 1.00968 1.11436 0.286255 2.01713 0.286255H24.2693C25.1721 0.286255 25.9056 1.00968 25.9056 1.89834V14.795C25.9056 15.6837 25.1721 16.4071 24.2693 16.4071ZM2.01713 0.931089C1.47574 0.931089 1.0351 1.36501 1.0351 1.89834V14.795C1.0351 15.3284 1.47574 15.7623 2.01713 15.7623H24.2693C24.8107 15.7623 25.2513 15.3284 25.2513 14.795V1.89834C25.2513 1.36501 24.8107 0.931089 24.2693 0.931089H2.01713Z" fill="#A7A8AB"/>
<path d="M13.0507 13.2117C15.8957 13.2117 18.202 10.9054 18.202 8.06041C18.202 5.21543 15.8957 2.90912 13.0507 2.90912C10.2057 2.90912 7.89941 5.21543 7.89941 8.06041C7.89941 10.9054 10.2057 13.2117 13.0507 13.2117Z" fill="#CBA747"/>
<path d="M16.0159 7.39141C15.8178 6.21392 14.874 5.61274 14.3964 5.45825C13.9189 5.30577 10.7605 5.36891 10.7605 5.36891C10.6893 5.45624 10.733 6.64381 10.733 6.64381L11.4524 6.63978L11.4665 7.55195H10.8458C10.8364 7.55186 10.8271 7.55364 10.8185 7.55719C10.8098 7.56073 10.8019 7.56598 10.7953 7.57261C10.7886 7.57923 10.7834 7.58712 10.7799 7.5958C10.7763 7.60448 10.7745 7.61378 10.7746 7.62315V8.52323C10.7746 8.56286 10.8062 8.59443 10.8458 8.59443H11.4766C11.4786 9.08007 11.4725 9.46899 11.453 9.47638C11.3993 9.49788 10.8149 9.44683 10.7572 9.48646C10.7014 9.52407 10.7316 10.228 10.7316 10.4974C10.7296 10.7667 10.8028 10.7553 10.8028 10.7553C14.1513 10.67 14.07 10.9776 15.0137 10.4121C15.9575 9.84716 16.2174 8.57025 16.0166 7.39074L16.0159 7.39141ZM12.4505 9.47302V8.58301L13.5259 8.59443C13.545 8.59461 13.5635 8.58723 13.5772 8.5739C13.5909 8.56057 13.5988 8.54236 13.5991 8.52323V7.62315C13.5988 7.60403 13.5909 7.58582 13.5772 7.57248C13.5635 7.55915 13.545 7.55177 13.5259 7.55195L12.4505 7.55396V6.56052C12.4505 6.56052 14.913 6.28781 14.913 8.13432C14.913 9.90896 12.4505 9.47302 12.4505 9.47302Z" fill="white"/>
</g>
<defs>
<clipPath id="clip0_125_718">
<rect width="25.5247" height="16.1209" fill="white" transform="translate(0.288574)"/>
</clipPath>
</defs>
</svg>
