<svg width="27" height="17" viewBox="0 0 27 17" fill="none" xmlns="http://www.w3.org/2000/svg">
<g clip-path="url(#clip0_125_760)">
<path opacity="0.07" d="M24.1883 0H2.69382C1.55193 0 0.678711 0.873214 0.678711 2.01511V14.1058C0.678711 15.2477 1.6191 16.1209 2.69382 16.1209H24.1883C25.3302 16.1209 26.2034 15.2477 26.2034 14.1058V2.01511C26.2034 0.873214 25.2631 0 24.1883 0Z" fill="black"/>
<path d="M24.1885 0.671692C24.9274 0.671692 25.5319 1.27622 25.5319 2.0151V14.1058C25.5319 14.8446 24.9274 15.4492 24.1885 15.4492H2.69399C1.95512 15.4492 1.35059 14.8446 1.35059 14.1058V2.0151C1.35059 1.27622 1.95512 0.671692 2.69399 0.671692H24.1885Z" fill="white"/>
<path d="M13.4411 13.5684C16.483 13.5684 18.949 11.1024 18.949 8.06046C18.949 5.01849 16.483 2.55249 13.4411 2.55249C10.3991 2.55249 7.93311 5.01849 7.93311 8.06046C7.93311 11.1024 10.3991 13.5684 13.4411 13.5684Z" fill="#1652F0"/>
<path d="M14.7709 8.76842C14.7709 8.07321 14.3484 7.83879 13.5302 7.72594C12.9257 7.63862 12.8081 7.49756 12.8081 7.21545C12.8081 6.93333 13.013 6.75735 13.4046 6.75735C13.7606 6.75735 13.9668 6.88094 14.0515 7.16843C14.0604 7.1998 14.0792 7.22745 14.1051 7.24729C14.131 7.26713 14.1626 7.27811 14.1952 7.27859H14.5082C14.5287 7.27886 14.5489 7.27465 14.5675 7.26625C14.5862 7.25784 14.6027 7.24546 14.6161 7.22995C14.6294 7.21445 14.6391 7.19622 14.6446 7.17653C14.6502 7.15685 14.6513 7.1362 14.6479 7.11603C14.5485 6.66263 14.2429 6.38925 13.7633 6.30395V5.82569C13.7633 5.78626 13.7477 5.74843 13.7199 5.72049C13.692 5.69254 13.6543 5.67675 13.6149 5.67657H13.3159C13.2764 5.67657 13.2385 5.69229 13.2105 5.72025C13.1825 5.74822 13.1668 5.78614 13.1668 5.82569V6.28715C12.5717 6.37112 12.1949 6.76406 12.1949 7.26918C12.1949 7.92073 12.5925 8.17464 13.4227 8.28681C13.987 8.37951 14.1482 8.50176 14.1482 8.82216C14.1482 9.14323 13.8755 9.35818 13.4899 9.35818C12.9707 9.35818 12.7947 9.13114 12.7363 8.83627C12.7295 8.80235 12.7112 8.77182 12.6845 8.74979C12.6579 8.72777 12.6244 8.71561 12.5898 8.71536H12.2506C12.2304 8.71508 12.2103 8.71926 12.1918 8.72759C12.1733 8.73593 12.1569 8.74822 12.1437 8.7636C12.1305 8.77897 12.1209 8.79706 12.1154 8.81658C12.11 8.8361 12.1089 8.85658 12.1123 8.87657C12.1996 9.37363 12.518 9.73635 13.1668 9.82367V10.2952C13.1668 10.3348 13.1825 10.3727 13.2105 10.4006C13.2385 10.4286 13.2764 10.4443 13.3159 10.4443H13.6149C13.6543 10.4441 13.692 10.4284 13.7199 10.4004C13.7477 10.3725 13.7633 10.3346 13.7633 10.2952V9.82501C14.3793 9.72694 14.7709 9.30176 14.7709 8.76842V8.76842Z" fill="white"/>
<path d="M12.3127 11.1483C11.68 10.9166 11.1337 10.4962 10.7477 9.94383C10.3618 9.3915 10.1548 8.73395 10.1548 8.06013C10.1548 7.38631 10.3618 6.72876 10.7477 6.17643C11.1337 5.6241 11.68 5.20365 12.3127 4.97197C12.3533 4.95412 12.388 4.92529 12.4131 4.88874C12.4381 4.85218 12.4524 4.80935 12.4544 4.76509V4.45745C12.4572 4.43028 12.4527 4.40287 12.4414 4.378C12.4301 4.35313 12.4125 4.33167 12.3903 4.31579C12.3681 4.29992 12.342 4.29018 12.3149 4.28757C12.2877 4.28497 12.2603 4.28958 12.2355 4.30094C11.438 4.55516 10.7421 5.05637 10.2483 5.73212C9.75444 6.40787 9.48828 7.22316 9.48828 8.06013C9.48828 8.8971 9.75444 9.71239 10.2483 10.3881C10.7421 11.0639 11.438 11.5651 12.2355 11.8193C12.2603 11.8307 12.2877 11.8353 12.3149 11.8327C12.342 11.8301 12.3681 11.8203 12.3903 11.8045C12.4125 11.7886 12.4301 11.7671 12.4414 11.7423C12.4527 11.7174 12.4572 11.69 12.4544 11.6628V11.3565C12.4526 11.3122 12.4385 11.2693 12.4135 11.2326C12.3886 11.1959 12.3539 11.167 12.3134 11.149L12.3127 11.1483ZM14.6462 4.30161C14.6214 4.29047 14.594 4.28602 14.567 4.28872C14.5399 4.29143 14.514 4.30118 14.4918 4.31701C14.4697 4.33284 14.452 4.3542 14.4407 4.37896C14.4294 4.40372 14.4247 4.43101 14.4272 4.45812V4.76509C14.4291 4.8094 14.4434 4.85229 14.4684 4.88887C14.4935 4.92545 14.5283 4.95425 14.569 4.97197C15.2019 5.20352 15.7485 5.62396 16.1346 6.17636C16.5207 6.72877 16.7278 7.38648 16.7278 8.06047C16.7278 8.73445 16.5207 9.39216 16.1346 9.94457C15.7485 10.497 15.2019 10.9174 14.569 11.149C14.527 11.1649 14.491 11.1934 14.4658 11.2305C14.4405 11.2676 14.4273 11.3116 14.4279 11.3565V11.6635C14.4254 11.6906 14.4301 11.7179 14.4414 11.7426C14.4527 11.7674 14.4703 11.7888 14.4925 11.8046C14.5146 11.8204 14.5405 11.8302 14.5676 11.8329C14.5947 11.8356 14.622 11.8311 14.6469 11.82C15.4443 11.5658 16.1402 11.0646 16.6341 10.3888C17.1279 9.71306 17.3941 8.89777 17.3941 8.0608C17.3941 7.22383 17.1279 6.40855 16.6341 5.73279C16.1402 5.05704 15.4443 4.55583 14.6469 4.30161H14.6462Z" fill="white"/>
</g>
<defs>
<clipPath id="clip0_125_760">
<rect width="25.5247" height="16.1209" fill="white" transform="translate(0.678711)"/>
</clipPath>
</defs>
</svg>
