<svg width="27" height="17" viewBox="0 0 27 17" fill="none" xmlns="http://www.w3.org/2000/svg">
<g clip-path="url(#clip0_125_700)">
<path opacity="0.07" d="M24.1029 0H2.60837C1.46648 0 0.593262 0.873214 0.593262 2.01511V14.1058C0.593262 15.2477 1.53365 16.1209 2.60837 16.1209H24.1029C25.2448 16.1209 26.118 15.2477 26.118 14.1058V2.01511C26.118 0.873214 25.1776 0 24.1029 0Z" fill="black"/>
<path d="M24.103 0.671692C24.8419 0.671692 25.4465 1.27622 25.4465 2.0151V14.1058C25.4465 14.8446 24.8419 15.4492 24.103 15.4492H2.60854C1.86967 15.4492 1.26514 14.8446 1.26514 14.1058V2.0151C1.26514 1.27622 1.86967 0.671692 2.60854 0.671692H24.103Z" fill="white"/>
<path d="M13.3556 13.5684C16.3976 13.5684 18.8636 11.1024 18.8636 8.06046C18.8636 5.01849 16.3976 2.55249 13.3556 2.55249C10.3137 2.55249 7.84766 5.01849 7.84766 8.06046C7.84766 11.1024 10.3137 13.5684 13.3556 13.5684Z" fill="#F5AC37"/>
<path d="M10.6703 11.0576V11.0374V10.2515V9.19225C10.6703 9.14792 10.6703 9.1412 10.6166 9.1412H9.88443C9.84412 9.1412 9.82666 9.1412 9.82666 9.08747V8.44666H10.6092C10.6535 8.44666 10.6696 8.44666 10.6696 8.3889V7.75481C10.6696 7.71451 10.6696 7.70443 10.6159 7.70443H9.88375C9.84345 7.70443 9.82666 7.70443 9.82666 7.6507V7.05624C9.82666 7.01929 9.82666 7.00922 9.8804 7.00922H10.6058C10.6569 7.00922 10.6703 7.00922 10.6703 6.94541V5.12644C10.6703 5.0727 10.6703 5.05927 10.7375 5.05927H13.2678C13.4513 5.06604 13.634 5.08625 13.8146 5.11972C14.1864 5.18877 14.5436 5.32124 14.8705 5.51132C15.0868 5.63881 15.2863 5.79294 15.4643 5.97009C15.5974 6.10882 15.7181 6.25896 15.825 6.41879C15.9313 6.58084 16.0196 6.75406 16.0883 6.93533C16.0924 6.958 16.1053 6.97813 16.1241 6.99134C16.143 7.00455 16.1663 7.00977 16.189 7.00586H16.7936C16.8708 7.00586 16.8708 7.00586 16.8742 7.07975V7.63323C16.8742 7.68697 16.854 7.7004 16.8003 7.7004H16.3348C16.2878 7.7004 16.2743 7.7004 16.277 7.76153C16.2956 7.9671 16.2956 8.17392 16.277 8.37949C16.277 8.43659 16.277 8.4433 16.3415 8.4433H16.8742C16.8977 8.47353 16.8742 8.50376 16.8742 8.53398C16.8776 8.57332 16.8776 8.61287 16.8742 8.6522V9.0606C16.8742 9.11769 16.8574 9.13449 16.807 9.13449H16.1689C16.1475 9.13066 16.1254 9.13523 16.1073 9.14723C16.0891 9.15924 16.0763 9.17777 16.0715 9.19897C15.9195 9.5939 15.6767 9.94756 15.3628 10.2314C15.2481 10.3348 15.1277 10.4317 15.0021 10.5216C14.8671 10.5988 14.7355 10.6801 14.5971 10.7439C14.3423 10.8585 14.0753 10.9435 13.8011 10.9971C13.5405 11.0436 13.2759 11.065 13.0112 11.0609H10.6703V11.0576ZM15.3293 9.14792C15.2721 9.1412 15.2144 9.1412 15.1573 9.14792H11.4159C11.3649 9.14792 11.3487 9.14792 11.3487 9.21509V10.3865C11.3487 10.4403 11.3487 10.4537 11.4159 10.4537H13.1429C13.2254 10.4599 13.3084 10.4543 13.3894 10.4369C13.64 10.4188 13.8866 10.3643 14.1215 10.275C14.2073 10.2454 14.2899 10.2071 14.368 10.1608H14.3916C14.7963 9.95027 15.1252 9.61874 15.3326 9.21241C15.3326 9.21241 15.3561 9.15867 15.3293 9.14523V9.14792ZM15.3293 7.0025C15.3352 6.9874 15.3352 6.97058 15.3293 6.95548C15.2956 6.88094 15.2551 6.80966 15.2083 6.74255C15.1373 6.62863 15.0532 6.52336 14.9578 6.42887C14.9132 6.37171 14.8612 6.32067 14.8033 6.27706C14.5112 6.02849 14.1643 5.85284 13.7911 5.76455C13.603 5.7211 13.4105 5.69946 13.2174 5.70007H11.4058C11.3548 5.70007 11.3481 5.72022 11.3481 5.76455V6.9622C11.3481 7.01258 11.3481 7.02601 11.4126 7.02601H15.3057C15.3057 7.02601 15.3393 7.01929 15.346 6.99914L15.3293 7.0025ZM13.4398 8.44666H15.4911C15.5348 8.44666 15.5549 8.44666 15.5583 8.3889C15.5752 8.18011 15.5752 7.97031 15.5583 7.76153C15.5583 7.72122 15.5382 7.70443 15.4945 7.70443H11.4126C11.3615 7.70443 11.3481 7.72122 11.3481 7.76824V8.36606C11.3481 8.44331 11.3481 8.4433 11.4287 8.4433L13.4398 8.44666Z" fill="white"/>
</g>
<defs>
<clipPath id="clip0_125_700">
<rect width="25.5247" height="16.1209" fill="white" transform="translate(0.593262)"/>
</clipPath>
</defs>
</svg>
