<svg width="27" height="17" viewBox="0 0 27 17" fill="none" xmlns="http://www.w3.org/2000/svg">
<g clip-path="url(#clip0_125_743)">
<path d="M24.896 16.1209H2.59549C1.72227 16.1209 0.983398 15.382 0.983398 14.5088V1.61209C0.983398 0.738873 1.72227 0 2.59549 0H24.896C25.7692 0 26.5081 0.738873 26.5081 1.61209V14.5088C26.5081 15.382 25.7692 16.1209 24.896 16.1209Z" fill="white"/>
<path opacity="0.25" d="M24.896 16.1209H2.59549C1.72227 16.1209 0.983398 15.382 0.983398 14.5088V1.61209C0.983398 0.738873 1.72227 0 2.59549 0H24.8289C25.7692 0 26.5081 0.738873 26.5081 1.61209V14.5088C26.5081 15.382 25.7692 16.1209 24.896 16.1209ZM2.59549 0.671703C2.05812 0.671703 1.6551 1.07472 1.6551 1.61209V14.5088C1.6551 15.0462 2.05812 15.4492 2.59549 15.4492H24.8289C25.3662 15.4492 25.8364 15.0462 25.8364 14.5088V1.61209C25.8364 1.07472 25.4334 0.671703 24.896 0.671703H2.59549Z" fill="#A8AAAD"/>
<path d="M13.7458 13.5684C16.7877 13.5684 19.2537 11.1024 19.2537 8.06046C19.2537 5.01849 16.7877 2.55249 13.7458 2.55249C10.7038 2.55249 8.23779 5.01849 8.23779 8.06046C8.23779 11.1024 10.7038 13.5684 13.7458 13.5684Z" fill="#58595B"/>
<path d="M13.2086 5.03778L12.4025 8.06045L11.7308 8.32913L11.5293 9.068L12.201 8.79932L11.7308 10.6129H16.3656L16.6342 9.53819H13.7459L14.1489 8.06045L14.955 7.79176L15.1565 7.05289L14.3504 7.38874L14.955 5.03778H13.2086V5.03778Z" fill="white"/>
</g>
<defs>
<clipPath id="clip0_125_743">
<rect width="25.5247" height="16.1209" fill="white" transform="translate(0.983398)"/>
</clipPath>
</defs>
</svg>
