<svg width="26" height="17" viewBox="0 0 26 17" fill="none" xmlns="http://www.w3.org/2000/svg">
<g clip-path="url(#clip0_125_723)">
<path d="M23.6966 0H2.20212C1.08921 0 0.187012 0.902195 0.187012 2.01511V14.1058C0.187012 15.2187 1.08921 16.1209 2.20212 16.1209H23.6966C24.8095 16.1209 25.7117 15.2187 25.7117 14.1058V2.01511C25.7117 0.902195 24.8095 0 23.6966 0Z" fill="black" fill-opacity="0.07"/>
<path d="M23.6968 0.671692H2.20229C1.46035 0.671692 0.858887 1.27316 0.858887 2.0151V14.1058C0.858887 14.8477 1.46035 15.4492 2.20229 15.4492H23.6968C24.4387 15.4492 25.0402 14.8477 25.0402 14.1058V2.0151C25.0402 1.27316 24.4387 0.671692 23.6968 0.671692Z" fill="white"/>
<path d="M12.7194 2.85474L12.6509 3.08715V9.82702L12.7194 9.89486L15.8475 8.04566L12.7194 2.85474Z" fill="#343434"/>
<path d="M12.7196 2.85474L9.59082 8.04566L12.7196 9.89553V6.62434V2.85474Z" fill="#8C8C8C"/>
<path d="M12.7196 10.4873L12.6807 10.5343V12.9357L12.7196 13.0479L15.8498 8.63947L12.7196 10.4873Z" fill="#3C3C3B"/>
<path d="M12.7196 13.0479V10.4873L9.59082 8.63947L12.7196 13.0479Z" fill="#8C8C8C"/>
<path d="M12.7197 9.89485L15.8478 8.04565L12.7197 6.62366V9.89485Z" fill="#141414"/>
<path d="M9.59082 8.04565L12.7196 9.89485V6.62366L9.59082 8.04565Z" fill="#393939"/>
</g>
<defs>
<clipPath id="clip0_125_723">
<rect width="25.5247" height="16.1209" fill="white" transform="translate(0.187012)"/>
</clipPath>
</defs>
</svg>
