<svg width="27" height="17" viewBox="0 0 27 17" fill="none" xmlns="http://www.w3.org/2000/svg">
<g clip-path="url(#clip0_125_695)">
<path opacity="0.07" d="M24.2044 0H2.70993C2.17549 0 1.66294 0.212306 1.28504 0.590212C0.90713 0.968118 0.694824 1.48067 0.694824 2.01511L0.694824 14.1058C0.694824 14.6402 0.90713 15.1528 1.28504 15.5307C1.66294 15.9086 2.17549 16.1209 2.70993 16.1209H24.2044C24.7389 16.1209 25.2514 15.9086 25.6293 15.5307C26.0072 15.1528 26.2195 14.6402 26.2195 14.1058V2.01511C26.2195 1.48067 26.0072 0.968118 25.6293 0.590212C25.2514 0.212306 24.7389 0 24.2044 0V0Z" fill="black"/>
<path d="M24.2046 0.671692C24.5609 0.671692 24.9026 0.813229 25.1545 1.06517C25.4065 1.3171 25.548 1.6588 25.548 2.0151V14.1058C25.548 14.4621 25.4065 14.8038 25.1545 15.0557C24.9026 15.3076 24.5609 15.4492 24.2046 15.4492H2.71011C2.35381 15.4492 2.01211 15.3076 1.76017 15.0557C1.50824 14.8038 1.3667 14.4621 1.3667 14.1058V2.0151C1.3667 1.6588 1.50824 1.3171 1.76017 1.06517C2.01211 0.813229 2.35381 0.671692 2.71011 0.671692H24.2046Z" fill="white"/>
<path d="M13.4571 13.4341C16.4249 13.4341 18.8307 11.0282 18.8307 8.06045C18.8307 5.09268 16.4249 2.68683 13.4571 2.68683C10.4894 2.68683 8.0835 5.09268 8.0835 8.06045C8.0835 11.0282 10.4894 13.4341 13.4571 13.4341Z" fill="#8DC451"/>
<path d="M14.9484 7.67758C15.0647 7.44502 15.1024 7.18107 15.0559 6.92527C15.0522 6.74841 15.01 6.57448 14.9322 6.41563C14.8543 6.25678 14.7427 6.11682 14.6052 6.00553C14.4677 5.89425 14.3076 5.81431 14.136 5.7713C13.9644 5.72829 13.7855 5.72324 13.6117 5.75651L13.4573 4.70193C13.4564 4.6931 13.4538 4.68451 13.4497 4.67668C13.4455 4.66885 13.4398 4.66192 13.4329 4.6563C13.4261 4.65068 13.4181 4.64647 13.4096 4.64393C13.4011 4.64139 13.3922 4.64055 13.3834 4.64148L12.9938 4.70193C12.977 4.70666 12.9628 4.7177 12.954 4.73274C12.9452 4.74778 12.9426 4.76563 12.9468 4.78254L13.1281 5.84383L12.6445 5.93115L12.4631 4.89673C12.4623 4.88789 12.4597 4.87931 12.4555 4.87147C12.4514 4.86364 12.4457 4.85671 12.4388 4.85109C12.4319 4.84547 12.424 4.84127 12.4155 4.83872C12.407 4.83618 12.3981 4.83535 12.3892 4.83627L12.0265 4.90345C12.0112 4.9081 11.9979 4.91812 11.9893 4.93167C11.9807 4.94523 11.9772 4.96143 11.9795 4.97733L12.1676 6.04534L11.1466 6.2267C11.1298 6.23142 11.1156 6.24247 11.1068 6.2575C11.098 6.27254 11.0954 6.2904 11.0996 6.30731L11.1667 6.71704C11.1676 6.72588 11.1702 6.73447 11.1743 6.7423C11.1785 6.75013 11.1842 6.75706 11.1911 6.76268C11.198 6.7683 11.2059 6.77251 11.2144 6.77505C11.2229 6.77759 11.2318 6.77842 11.2406 6.7775H11.3011C11.37 6.77007 11.4396 6.77637 11.506 6.79603C11.5724 6.8157 11.6343 6.84834 11.688 6.89206C11.7417 6.93579 11.7863 6.98973 11.819 7.05078C11.8517 7.11182 11.872 7.17875 11.8788 7.24769L12.2683 9.40386C12.2974 9.53185 12.2786 9.66605 12.2155 9.78113C12.1524 9.89621 12.0493 9.98422 11.9258 10.0285C11.9127 10.0326 11.9012 10.0406 11.8928 10.0514C11.8844 10.0622 11.8795 10.0753 11.8788 10.089V10.5189C11.8709 10.5383 11.8709 10.5599 11.8788 10.5793C11.8871 10.5835 11.8963 10.5856 11.9056 10.5856C11.9149 10.5856 11.9241 10.5835 11.9325 10.5793L12.94 10.4047L13.1214 11.4391C13.1247 11.4557 13.1341 11.4705 13.1478 11.4805C13.1615 11.4904 13.1785 11.4949 13.1953 11.4929L13.558 11.4257C13.5748 11.421 13.589 11.4099 13.5978 11.3949C13.6066 11.3798 13.6092 11.362 13.605 11.3451L13.4573 10.3375L13.9342 10.2502L14.1155 11.2846C14.1188 11.3012 14.1282 11.316 14.1419 11.326C14.1556 11.336 14.1726 11.3404 14.1894 11.3384L14.5521 11.2779C14.5689 11.2732 14.5832 11.2621 14.5919 11.2471C14.6007 11.2321 14.6033 11.2142 14.5992 11.1973L14.4178 10.1629L14.6596 10.1226C14.835 10.0959 15.0025 10.031 15.15 9.93233C15.2975 9.8337 15.4215 9.7038 15.5132 9.55186C15.6049 9.39992 15.662 9.22966 15.6805 9.05317C15.6989 8.87668 15.6783 8.69828 15.6201 8.53064C15.5888 8.34266 15.5109 8.16551 15.3936 8.01534C15.2763 7.86516 15.1233 7.74674 14.9484 7.67086V7.67758ZM12.7856 6.75735L13.5043 6.62972C13.641 6.6238 13.7751 6.66774 13.8818 6.75337C13.9885 6.83899 14.0605 6.96046 14.0843 7.09518C14.1081 7.22989 14.0822 7.36867 14.0113 7.4857C13.9405 7.60272 13.8295 7.69 13.6991 7.73132L12.9803 7.85894L12.7856 6.75735ZM14.2364 9.3434L13.2759 9.51133L13.0811 8.40974L14.0416 8.24181C14.1783 8.23589 14.3125 8.27983 14.4192 8.36545C14.5259 8.45108 14.5978 8.57255 14.6217 8.70726C14.6455 8.84198 14.6196 8.98076 14.5487 9.09778C14.4778 9.2148 14.3669 9.30209 14.2364 9.3434Z" fill="white"/>
</g>
<defs>
<clipPath id="clip0_125_695">
<rect width="25.5247" height="16.1209" fill="white" transform="translate(0.694824)"/>
</clipPath>
</defs>
</svg>
