<svg width="27" height="17" viewBox="0 0 27 17" fill="none" xmlns="http://www.w3.org/2000/svg">
<g clip-path="url(#clip0_125_705)">
<path opacity="0.07" d="M24.0013 0H2.50681C1.36491 0 0.491699 0.873214 0.491699 2.01511V14.1058C0.491699 15.2477 1.43208 16.1209 2.50681 16.1209H24.0013C25.1432 16.1209 26.0164 15.2477 26.0164 14.1058V2.01511C26.0164 0.873214 25.076 0 24.0013 0Z" fill="black"/>
<path d="M24.0015 0.671692C24.7404 0.671692 25.3449 1.27622 25.3449 2.0151V14.1058C25.3449 14.8446 24.7404 15.4492 24.0015 15.4492H2.50698C1.76811 15.4492 1.16357 14.8446 1.16357 14.1058V2.0151C1.16357 1.27622 1.76811 0.671692 2.50698 0.671692H24.0015Z" fill="white"/>
<path d="M8.55211 8.06044V10.5457C8.55211 10.7473 8.41776 10.7473 8.21625 10.6801C6.94002 10.1427 6.20114 8.46347 6.67134 7.05289C6.94002 6.31402 7.47738 5.70948 8.21625 5.4408C8.48493 5.30646 8.55211 5.37363 8.55211 5.57514V8.06044ZM9.89551 8.06044V5.57514C9.89551 5.37363 9.89551 5.37363 10.097 5.4408C11.5076 5.97816 12.2465 7.65742 11.7091 9.068C11.4404 9.80687 10.9031 10.4114 10.1642 10.6801C9.89551 10.8144 9.89551 10.7473 9.89551 10.5457V8.06044ZM14.7318 3.35852H9.22381C11.7763 3.35852 13.7914 5.4408 13.7914 8.06044C13.7914 10.6801 11.7763 12.7624 9.22381 12.7624H14.7318C17.2842 12.7624 19.2994 10.6801 19.2994 8.06044C19.2994 5.4408 17.2842 3.35852 14.7318 3.35852Z" fill="#3086C8"/>
</g>
<defs>
<clipPath id="clip0_125_705">
<rect width="25.5247" height="16.1209" fill="white" transform="translate(0.491699)"/>
</clipPath>
</defs>
</svg>
