<svg width="26" height="17" viewBox="0 0 26 17" fill="none" xmlns="http://www.w3.org/2000/svg">
<g clip-path="url(#clip0_125_734)">
<path opacity="0.07" d="M23.5946 0H2.10007C0.958175 0 0.0849609 0.873214 0.0849609 2.01511V14.1058C0.0849609 15.2477 1.02535 16.1209 2.10007 16.1209H23.5946C24.7365 16.1209 25.6097 15.2477 25.6097 14.1058V2.01511C25.6097 0.873214 24.6693 0 23.5946 0Z" fill="black"/>
<path d="M23.5947 0.671692C24.3336 0.671692 24.9382 1.27622 24.9382 2.0151V14.1058C24.9382 14.8446 24.3336 15.4492 23.5947 15.4492H2.10024C1.36137 15.4492 0.756836 14.8446 0.756836 14.1058V2.0151C0.756836 1.27622 1.36137 0.671692 2.10024 0.671692H23.5947Z" fill="white"/>
<path fill-rule="evenodd" clip-rule="evenodd" d="M7.80963 3.35852H10.1606V11.0831C10.1606 11.5285 9.98367 11.9556 9.66875 12.2705C9.35383 12.5854 8.9267 12.7624 8.48133 12.7624H6.13037V5.03778C6.13037 4.59241 6.30729 4.16529 6.62221 3.85036C6.93714 3.53544 7.36426 3.35852 7.80963 3.35852Z" fill="#006EBC"/>
<path fill-rule="evenodd" clip-rule="evenodd" d="M12.5113 3.35852H14.8623V11.0831C14.8623 11.5285 14.6853 11.9556 14.3704 12.2705C14.0555 12.5854 13.6284 12.7624 13.183 12.7624H10.832V5.03778C10.832 4.59241 11.009 4.16529 11.3239 3.85036C11.6388 3.53544 12.0659 3.35852 12.5113 3.35852Z" fill="#F00036"/>
<path fill-rule="evenodd" clip-rule="evenodd" d="M17.2134 3.35852H19.5644V11.0831C19.5644 11.5285 19.3875 11.9556 19.0726 12.2705C18.7576 12.5854 18.3305 12.7624 17.8851 12.7624H15.5342V5.03778C15.5342 4.59241 15.7111 4.16529 16.026 3.85036C16.3409 3.53544 16.7681 3.35852 17.2134 3.35852V3.35852Z" fill="#2AB419"/>
<path d="M7.30895 9.7397C6.59694 9.7397 5.88359 9.5355 5.5249 9.07673L6.04883 8.62266C6.09451 9.3837 8.43002 9.45557 8.43002 8.49503V6.38118H9.64043V8.49503C9.64043 8.98403 9.25487 9.38303 8.58384 9.59125C8.27083 9.68798 7.66696 9.7397 7.30895 9.7397V9.7397ZM12.7605 9.7397C12.3078 9.7397 11.8282 9.66783 11.4406 9.49386C10.8038 9.20838 10.5593 8.68378 10.5674 8.01678C10.5754 7.33568 10.8602 6.81981 11.5534 6.56254C12.4394 6.23341 13.7989 6.38723 14.1905 6.7439V7.3968C13.8063 7.04684 12.8754 6.79361 12.2298 7.08782C11.898 7.23962 11.7348 7.70377 11.7301 8.06044C11.7261 8.4366 11.8947 8.90141 12.2298 9.06598C12.87 9.37967 13.8352 9.09285 14.1905 8.76976V9.44818C13.9501 9.61947 13.3489 9.7397 12.7605 9.7397V9.7397ZM18.5902 8.002C18.8387 7.84415 18.9811 7.62115 18.9811 7.32694C18.9811 7.03274 18.9032 6.86548 18.7474 6.69621C18.609 6.55717 18.3578 6.38118 17.9158 6.38118H15.534V9.7397H17.9158C18.3833 9.7397 18.6527 9.58521 18.7991 9.46094C18.9892 9.29302 19.0853 9.10494 19.0853 8.81611C19.0853 8.5266 18.9811 8.2062 18.5902 8.002V8.002ZM17.3099 7.81326H16.3507V6.84332H17.3549C17.9971 6.84332 17.989 7.81326 17.3099 7.81326V7.81326ZM17.5034 9.26212H16.3507V8.24583H17.5034C18.1657 8.24583 18.2308 9.26212 17.5034 9.26212Z" fill="white"/>
</g>
<defs>
<clipPath id="clip0_125_734">
<rect width="25.5247" height="16.1209" fill="white" transform="translate(0.0849609)"/>
</clipPath>
</defs>
</svg>
