<svg width="27" height="17" viewBox="0 0 27 17" fill="none" xmlns="http://www.w3.org/2000/svg">
<g clip-path="url(#clip0_125_748)">
<path opacity="0.07" d="M24.3915 0H2.89695C1.75505 0 0.881836 0.873214 0.881836 2.01511V14.1058C0.881836 15.2477 1.82222 16.1209 2.89695 16.1209H24.3915C25.5333 16.1209 26.4066 15.2477 26.4066 14.1058V2.01511C26.4066 0.873214 25.4662 0 24.3915 0Z" fill="black"/>
<path d="M24.3916 0.671692C25.1305 0.671692 25.735 1.27622 25.735 2.0151V14.1058C25.735 14.8446 25.1305 15.4492 24.3916 15.4492H2.89712C2.15824 15.4492 1.55371 14.8446 1.55371 14.1058V2.0151C1.55371 1.27622 2.15824 0.671692 2.89712 0.671692H24.3916Z" fill="white"/>
<path d="M10.9573 12.7624C13.5541 12.7624 15.6592 10.6572 15.6592 8.06044C15.6592 5.46364 13.5541 3.35852 10.9573 3.35852C8.36049 3.35852 6.25537 5.46364 6.25537 8.06044C6.25537 10.6572 8.36049 12.7624 10.9573 12.7624Z" fill="#EB001B"/>
<path d="M16.3308 12.7624C18.9276 12.7624 21.0328 10.6572 21.0328 8.06044C21.0328 5.46364 18.9276 3.35852 16.3308 3.35852C13.734 3.35852 11.6289 5.46364 11.6289 8.06044C11.6289 10.6572 13.734 12.7624 16.3308 12.7624Z" fill="#F79E1B"/>
<path d="M15.6591 8.06046C15.6591 6.44837 14.8531 5.03779 13.644 4.23175C12.435 5.10496 11.6289 6.51554 11.6289 8.06046C11.6289 9.60538 12.435 11.0831 13.644 11.8892C14.8531 11.0831 15.6591 9.67255 15.6591 8.06046Z" fill="#FF5F00"/>
</g>
<defs>
<clipPath id="clip0_125_748">
<rect width="25.5247" height="16.1209" fill="white" transform="translate(0.881836)"/>
</clipPath>
</defs>
</svg>
