<svg width="27" height="17" viewBox="0 0 27 17" fill="none" xmlns="http://www.w3.org/2000/svg">
<g clip-path="url(#clip0_125_754)">
<path opacity="0.07" d="M24.2899 0H2.79538C1.65349 0 0.780273 0.873214 0.780273 2.01511V14.1058C0.780273 15.2477 1.72066 16.1209 2.79538 16.1209H24.2899C25.4318 16.1209 26.305 15.2477 26.305 14.1058V2.01511C26.305 0.873214 25.3646 0 24.2899 0Z" fill="black"/>
<path d="M24.2901 0.671692C25.0289 0.671692 25.6335 1.27622 25.6335 2.0151V14.1058C25.6335 14.8446 25.0289 15.4492 24.2901 15.4492H2.79555C2.05668 15.4492 1.45215 14.8446 1.45215 14.1058V2.0151C1.45215 1.27622 2.05668 0.671692 2.79555 0.671692H24.2901Z" fill="white"/>
<path d="M16.8339 5.57514C16.9683 4.90344 16.8339 4.43325 16.4309 4.03022C16.0279 3.56003 15.289 3.35852 14.3486 3.35852H11.5947C11.3931 3.35852 11.2588 3.49286 11.1916 3.69437L10.1841 10.4786C10.1841 10.6129 10.2513 10.7473 10.3856 10.7473H12.1992L12.4679 8.46347L13.6769 6.98572L16.8339 5.57514V5.57514Z" fill="#003087"/>
<path d="M16.8341 5.57513L16.6998 5.70947C16.3639 7.59024 15.222 8.26195 13.6099 8.26195H12.871C12.6695 8.26195 12.5352 8.39629 12.468 8.5978L12.065 11.2174L11.9307 11.8891C11.9307 12.0235 11.9978 12.1578 12.1322 12.1578H13.5428C13.7443 12.1578 13.8786 12.0235 13.8786 11.8891V11.822L14.1473 10.2099V10.1427C14.1473 10.0084 14.3488 9.87403 14.4831 9.87403H14.6846C16.0952 9.87403 17.1699 9.33667 17.4386 7.72458C17.573 7.05288 17.5058 6.51552 17.1699 6.1125C17.1028 5.77665 16.9684 5.6423 16.8341 5.57513V5.57513Z" fill="#3086C8"/>
<path d="M16.4308 5.44083C16.3637 5.37366 16.2965 5.37366 16.2293 5.37366C16.1621 5.37366 16.095 5.37366 16.0278 5.30649C15.8263 5.23932 15.5576 5.23932 15.2889 5.23932H13.2738C13.2066 5.23932 13.1395 5.23932 13.1395 5.30649C13.0051 5.37366 12.938 5.44083 12.938 5.57517L12.4678 8.53066V8.59784C12.4678 8.39632 12.6693 8.26198 12.8708 8.26198H13.744C15.4233 8.26198 16.498 7.59028 16.8338 5.70951V5.57517C16.7667 5.508 16.6323 5.44083 16.498 5.44083H16.4308V5.44083Z" fill="#012169"/>
</g>
<defs>
<clipPath id="clip0_125_754">
<rect width="25.5247" height="16.1209" fill="white" transform="translate(0.780273)"/>
</clipPath>
</defs>
</svg>
