<svg width="26" height="17" viewBox="0 0 26 17" fill="none" xmlns="http://www.w3.org/2000/svg">
<g clip-path="url(#clip0_125_771)">
<path opacity="0.07" d="M23.9847 0H2.49021C1.34831 0 0.475098 0.873214 0.475098 2.01511V14.1058C0.475098 15.2477 1.41548 16.1209 2.49021 16.1209H23.9847C25.1266 16.1209 25.9998 15.2477 25.9998 14.1058V2.01511C25.9998 0.873214 25.0594 0 23.9847 0Z" fill="black"/>
<path d="M23.9849 0.671692C24.7238 0.671692 25.3283 1.27622 25.3283 2.0151V14.1058C25.3283 14.8446 24.7238 15.4492 23.9849 15.4492H2.49038C1.75151 15.4492 1.14697 14.8446 1.14697 14.1058V2.0151C1.14697 1.27622 1.75151 0.671692 2.49038 0.671692H23.9849Z" fill="white"/>
<path d="M19.4842 6.78417H19.2827C19.014 7.45588 18.8125 7.79173 18.611 8.79928H19.8872C19.6857 7.79173 19.6857 7.32154 19.4842 6.78417V6.78417ZM21.4321 10.7472H20.2902C20.2231 10.7472 20.2231 10.7472 20.1559 10.6801L20.0215 10.0755L19.9544 9.94118H18.3423C18.2751 9.94118 18.2079 9.94118 18.2079 10.0755L18.0064 10.6801C18.0064 10.7472 17.9393 10.7472 17.9393 10.7472H16.5287L16.663 10.4114L18.611 5.84379C18.611 5.50794 18.8125 5.3736 19.1483 5.3736H20.1559C20.2231 5.3736 20.2902 5.3736 20.2902 5.50794L21.2306 9.87401C21.2978 10.1427 21.365 10.3442 21.365 10.6129C21.4321 10.6801 21.4321 10.6801 21.4321 10.7472V10.7472ZM12.4313 10.5457L12.7 9.33665C12.7672 9.33665 12.8343 9.40382 12.8343 9.40382C13.3045 9.60533 13.7747 9.73967 14.2449 9.6725C14.3792 9.6725 14.5807 9.60533 14.7151 9.53816C15.0509 9.40382 15.0509 9.06796 14.7823 8.79928C14.6479 8.66494 14.4464 8.59777 14.2449 8.46343C13.9762 8.32909 13.7075 8.19475 13.506 7.99324C12.7 7.32154 12.9687 6.38115 13.4389 5.91096C13.8419 5.64228 14.0434 5.3736 14.5807 5.3736C15.3868 5.3736 16.26 5.3736 16.663 5.50794H16.7302C16.663 5.91096 16.5959 6.24681 16.4615 6.64983C16.1257 6.51549 15.7898 6.38115 15.454 6.38115C15.2525 6.38115 15.0509 6.38115 14.8494 6.44832C14.7151 6.44832 14.6479 6.51549 14.5807 6.58266C14.4464 6.717 14.4464 6.91851 14.5807 7.05285L14.9166 7.32154C15.1853 7.45588 15.454 7.59022 15.6555 7.72456C15.9913 7.92607 16.3272 8.26192 16.3943 8.66494C16.5287 9.26947 16.3272 9.80684 15.7898 10.2099C15.454 10.4785 15.3196 10.6129 14.8494 10.6129C13.909 10.6129 13.1702 10.6801 12.5656 10.4785C12.4985 10.6129 12.4985 10.6129 12.4313 10.5457V10.5457ZM10.0803 10.7472C10.1475 10.277 10.1475 10.277 10.2147 10.0755C10.5505 8.59777 10.8864 7.05285 11.1551 5.57511C11.2222 5.44077 11.2222 5.3736 11.3566 5.3736H12.5656C12.4313 6.17964 12.297 6.78417 12.0954 7.52305C11.8939 8.5306 11.6924 9.53816 11.4237 10.5457C11.4237 10.6801 11.3566 10.6801 11.2222 10.6801L10.0803 10.7472ZM3.8335 5.50794C3.8335 5.44077 3.96784 5.3736 4.03501 5.3736H6.3188C6.65465 5.3736 6.92333 5.57511 6.9905 5.91096L7.59503 8.86645C7.59503 8.93362 7.59503 8.93362 7.6622 9.00079C7.6622 8.93362 7.72938 8.93362 7.72938 8.93362L9.13995 5.50794C9.07278 5.44077 9.13995 5.3736 9.20712 5.3736H10.6177C10.6177 5.44077 10.6177 5.44077 10.5505 5.50794L8.46825 10.4114C8.40108 10.5457 8.40108 10.6129 8.33391 10.6801C8.26674 10.7472 8.1324 10.6801 7.99806 10.6801H6.9905C6.92333 10.6801 6.85616 10.6801 6.85616 10.5457L5.78144 6.38115C5.6471 6.24681 5.44558 6.0453 5.1769 5.97813C4.77388 5.77662 4.03501 5.64228 3.90067 5.64228L3.8335 5.50794Z" fill="#142688"/>
</g>
<defs>
<clipPath id="clip0_125_771">
<rect width="25.5247" height="16.1209" fill="white" transform="translate(0.475098)"/>
</clipPath>
</defs>
</svg>
